<svg width="64" height="64" viewBox="0 0 64 64" fill="none" xmlns="http://www.w3.org/2000/svg">
<rect width="64" height="64" rx="20" fill="#EEF2FF"/>
<path d="M17.7058 11C20.9476 14.0892 25.2045 15.5766 29.6136 16.6513C29.4034 26.4194 25.2145 34.5674 17.6738 37.25C13.7473 35.9526 10.7818 33.2251 8.77751 29.5127C6.82324 25.8964 5.85412 21.377 5.75 16.6778C10.3854 15.9607 14.5242 14.2669 17.7038 11H17.7058Z" fill="#22C55E" stroke="#111827" stroke-width="0.5"/>
<rect x="12.6211" y="16.4941" width="9.62328" height="14" rx="4.81164" fill="#22C55E" stroke="white" stroke-width="0.5" stroke-linecap="round" stroke-linejoin="round"/>
<path d="M20.9822 18.0703L13.8438 28.9121" stroke="white" stroke-width="0.5"/>
<rect x="15.3203" y="34.5625" width="22.292" height="9.37796" rx="1" fill="#111827"/>
<path d="M51.6855 37.3721C53.49 37.413 54.9453 39.916 54.9453 42.998C54.9453 46.08 53.4899 48.5811 51.6855 48.6221V48.625H50.0127V47.8936C49.0121 46.9265 48.336 45.097 48.3359 42.998C48.3359 40.8984 49.0116 39.0675 50.0127 38.1006V37.3711H51.6855V37.3721Z" fill="#111827"/>
<path d="M51.6855 37.3721H51.4355V37.6165L51.6799 37.622L51.6855 37.3721ZM54.9453 42.998L55.1953 42.9981V42.998H54.9453ZM51.6855 48.6221L51.6799 48.3721L51.4355 48.3777V48.6221H51.6855ZM51.6855 48.625V48.875H51.9355V48.625H51.6855ZM50.0127 48.625H49.7627V48.875H50.0127V48.625ZM50.0127 47.8936H50.2627V47.7875L50.1864 47.7138L50.0127 47.8936ZM48.3359 42.998L48.0859 42.998L48.0859 42.9981L48.3359 42.998ZM50.0127 38.1006L50.1864 38.2804L50.2627 38.2067V38.1006H50.0127ZM50.0127 37.3711V37.1211H49.7627V37.3711H50.0127ZM51.6855 37.3711H51.9355V37.1211H51.6855V37.3711ZM51.6855 37.3721L51.6799 37.622C52.4594 37.6397 53.2087 38.1922 53.7758 39.1701C54.3396 40.1419 54.6953 41.4934 54.6953 42.998H54.9453H55.1953C55.1953 41.4206 54.8234 39.9796 54.2084 38.9192C53.5968 37.8648 52.7162 37.1454 51.6912 37.1221L51.6855 37.3721ZM54.9453 42.998L54.6953 42.998C54.6953 44.5026 54.3395 45.8536 53.7758 46.825C53.2087 47.8023 52.4594 48.3544 51.6799 48.3721L51.6855 48.6221L51.6912 48.872C52.7161 48.8488 53.5966 48.1299 54.2083 47.0759C54.8234 46.016 55.1953 44.5754 55.1953 42.9981L54.9453 42.998ZM51.6855 48.6221H51.4355V48.625H51.6855H51.9355V48.6221H51.6855ZM51.6855 48.625V48.375H50.0127V48.625V48.875H51.6855V48.625ZM50.0127 48.625H50.2627V47.8936H50.0127H49.7627V48.625H50.0127ZM50.0127 47.8936L50.1864 47.7138C49.2501 46.8088 48.586 45.0544 48.5859 42.998L48.3359 42.998L48.0859 42.9981C48.086 45.1396 48.7741 47.0441 49.839 48.0733L50.0127 47.8936ZM48.3359 42.998H48.5859C48.5859 40.9409 49.2497 39.1851 50.1864 38.2804L50.0127 38.1006L49.839 37.9208C48.7735 38.9499 48.0859 40.856 48.0859 42.998H48.3359ZM50.0127 38.1006H50.2627V37.3711H50.0127H49.7627V38.1006H50.0127ZM50.0127 37.3711V37.6211H51.6855V37.3711V37.1211H50.0127V37.3711ZM51.6855 37.3711H51.4355V37.3721H51.6855H51.9355V37.3711H51.6855Z" fill="#111827"/>
<ellipse cx="49.7168" cy="42.9998" rx="3.02933" ry="5.62677" fill="#374151" stroke="#111827" stroke-width="0.5"/>
<ellipse cx="49.7214" cy="42.9959" rx="1.92845" ry="3.25761" fill="white" stroke="#111827" stroke-width="0.5"/>
<ellipse cx="49.5802" cy="43.0004" rx="0.826312" ry="1.40669" fill="#111827" stroke="#111827" stroke-width="0.5"/>
<path d="M35.9941 37.3721C37.8004 37.4095 39.2578 39.9138 39.2578 42.998C39.2578 46.0822 37.8004 48.5857 35.9941 48.623V48.625H34.3213V47.8896C33.3229 46.9216 32.6485 45.0943 32.6484 42.998C32.6484 40.9012 33.3224 39.0724 34.3213 38.1045V37.3711H35.9941V37.3721Z" fill="#111827"/>
<path d="M35.9941 37.3721H35.7441V37.6169L35.989 37.622L35.9941 37.3721ZM39.2578 42.998L39.5078 42.9981V42.998H39.2578ZM35.9941 48.623L35.989 48.3731L35.7441 48.3782V48.623H35.9941ZM35.9941 48.625V48.875H36.2441V48.625H35.9941ZM34.3213 48.625H34.0713V48.875H34.3213V48.625ZM34.3213 47.8896H34.5713V47.7838L34.4953 47.7102L34.3213 47.8896ZM32.6484 42.998L32.3984 42.998L32.3984 42.9981L32.6484 42.998ZM34.3213 38.1045L34.4953 38.284L34.5713 38.2104V38.1045H34.3213ZM34.3213 37.3711V37.1211H34.0713V37.3711H34.3213ZM35.9941 37.3711H36.2441V37.1211H35.9941V37.3711ZM35.9941 37.3721L35.989 37.622C36.7692 37.6382 37.5193 38.1901 38.0871 39.168C38.6515 40.14 39.0078 41.4923 39.0078 42.998H39.2578H39.5078C39.5078 41.4195 39.1354 39.9775 38.5195 38.9169C37.9071 37.8623 37.0254 37.1434 35.9993 37.1221L35.9941 37.3721ZM39.2578 42.998L39.0078 42.998C39.0078 44.5037 38.6515 45.8558 38.0871 46.8275C37.5193 47.8052 36.7692 48.3569 35.989 48.3731L35.9941 48.623L35.9993 48.873C37.0253 48.8518 37.907 48.1331 38.5195 47.0787C39.1353 46.0183 39.5078 44.5765 39.5078 42.9981L39.2578 42.998ZM35.9941 48.623H35.7441V48.625H35.9941H36.2441V48.623H35.9941ZM35.9941 48.625V48.375H34.3213V48.625V48.875H35.9941V48.625ZM34.3213 48.625H34.5713V47.8896H34.3213H34.0713V48.625H34.3213ZM34.3213 47.8896L34.4953 47.7102C33.5609 46.8041 32.8985 45.0516 32.8984 42.998L32.6484 42.998L32.3984 42.9981C32.3985 45.1369 33.0848 47.039 34.1473 48.0691L34.3213 47.8896ZM32.6484 42.998H32.8984C32.8984 40.9437 33.5605 39.1898 34.4953 38.284L34.3213 38.1045L34.1473 37.925C33.0843 38.955 32.3984 40.8587 32.3984 42.998H32.6484ZM34.3213 38.1045H34.5713V37.3711H34.3213H34.0713V38.1045H34.3213ZM34.3213 37.3711V37.6211H35.9941V37.3711V37.1211H34.3213V37.3711ZM35.9941 37.3711H35.7441V37.3721H35.9941H36.2441V37.3711H35.9941Z" fill="#111827"/>
<ellipse cx="34.0293" cy="42.9998" rx="3.02933" ry="5.62677" fill="#374151" stroke="#111827" stroke-width="0.5"/>
<ellipse cx="34.0378" cy="42.9978" rx="1.92845" ry="3.25761" fill="white" stroke="#111827" stroke-width="0.5"/>
<ellipse cx="33.8927" cy="43.0004" rx="0.826312" ry="1.40669" fill="#111827" stroke="#111827" stroke-width="0.5"/>
<path d="M21.1348 37.3721C22.9392 37.413 24.3945 39.916 24.3945 42.998C24.3945 46.08 22.9392 48.5811 21.1348 48.6221V48.625H19.4619V47.8936C18.4613 46.9265 17.7852 45.097 17.7852 42.998C17.7852 40.8984 18.4608 39.0675 19.4619 38.1006V37.3711H21.1348V37.3721Z" fill="#111827"/>
<path d="M21.1348 37.3721H20.8848V37.6165L21.1291 37.622L21.1348 37.3721ZM24.3945 42.998L24.6445 42.9981V42.998H24.3945ZM21.1348 48.6221L21.1291 48.3721L20.8848 48.3777V48.6221H21.1348ZM21.1348 48.625V48.875H21.3848V48.625H21.1348ZM19.4619 48.625H19.2119V48.875H19.4619V48.625ZM19.4619 47.8936H19.7119V47.7875L19.6357 47.7138L19.4619 47.8936ZM17.7852 42.998L17.5352 42.998L17.5352 42.9981L17.7852 42.998ZM19.4619 38.1006L19.6356 38.2804L19.7119 38.2067V38.1006H19.4619ZM19.4619 37.3711V37.1211H19.2119V37.3711H19.4619ZM21.1348 37.3711H21.3848V37.1211H21.1348V37.3711ZM21.1348 37.3721L21.1291 37.622C21.9086 37.6397 22.6579 38.1922 23.2251 39.1701C23.7888 40.1419 24.1445 41.4934 24.1445 42.998H24.3945H24.6445C24.6445 41.4206 24.2726 39.9796 23.6576 38.9192C23.046 37.8648 22.1654 37.1454 21.1404 37.1221L21.1348 37.3721ZM24.3945 42.998L24.1445 42.998C24.1445 44.5026 23.7887 45.8536 23.225 46.825C22.6579 47.8023 21.9086 48.3544 21.1291 48.3721L21.1348 48.6221L21.1404 48.872C22.1653 48.8488 23.0459 48.1299 23.6575 47.0759C24.2726 46.016 24.6445 44.5754 24.6445 42.9981L24.3945 42.998ZM21.1348 48.6221H20.8848V48.625H21.1348H21.3848V48.6221H21.1348ZM21.1348 48.625V48.375H19.4619V48.625V48.875H21.1348V48.625ZM19.4619 48.625H19.7119V47.8936H19.4619H19.2119V48.625H19.4619ZM19.4619 47.8936L19.6357 47.7138C18.6993 46.8088 18.0352 45.0544 18.0352 42.998L17.7852 42.998L17.5352 42.9981C17.5352 45.1396 18.2233 47.0441 19.2882 48.0733L19.4619 47.8936ZM17.7852 42.998H18.0352C18.0352 40.9409 18.6989 39.1851 19.6356 38.2804L19.4619 38.1006L19.2882 37.9208C18.2228 38.9499 17.5352 40.856 17.5352 42.998H17.7852ZM19.4619 38.1006H19.7119V37.3711H19.4619H19.2119V38.1006H19.4619ZM19.4619 37.3711V37.6211H21.1348V37.3711V37.1211H19.4619V37.3711ZM21.1348 37.3711H20.8848V37.3721H21.1348H21.3848V37.3711H21.1348Z" fill="#111827"/>
<ellipse cx="19.166" cy="42.9998" rx="3.02933" ry="5.62677" fill="#374151" stroke="#111827" stroke-width="0.5"/>
<ellipse cx="19.1706" cy="42.9978" rx="1.92845" ry="3.25761" fill="white" stroke="#111827" stroke-width="0.5"/>
<ellipse cx="19.0294" cy="43.0004" rx="0.826312" ry="1.40669" fill="#111827" stroke="#111827" stroke-width="0.5"/>
<path d="M40.778 43.1924C40.778 43.7447 40.3302 44.1924 39.778 44.1924H37.5319C36.8264 44.1924 36.3318 43.4733 36.4533 42.7783C36.5367 42.3012 36.5817 41.7942 36.5817 41.2686C36.5817 38.4465 35.2901 36.1592 33.6969 36.1592C32.1039 36.1595 30.8121 38.4467 30.8121 41.2686C30.8121 41.7942 30.8571 42.3012 30.9405 42.7784C31.062 43.4733 30.5675 44.1924 29.862 44.1924H22.4245C21.719 44.1924 21.2244 43.4733 21.3459 42.7783C21.4293 42.3012 21.4742 41.7942 21.4742 41.2686C21.4742 38.4465 20.1826 36.1592 18.5895 36.1592C16.9965 36.1595 15.7047 38.4467 15.7047 41.2686V41.2686C15.7047 41.8055 14.9145 42.1275 14.7095 41.6312C13.399 38.4583 13.8181 34.749 15.9681 31.9199C16.1472 31.6842 16.4305 31.5547 16.7265 31.5547H39.778C40.3302 31.5547 40.778 32.0024 40.778 32.5547V43.1924Z" fill="#A5B4FC"/>
<path d="M36.5817 41.2686L36.8317 41.2686V41.2686H36.5817ZM33.6969 36.1592L33.6969 35.9092L33.6969 35.9092L33.6969 36.1592ZM30.8121 41.2686L30.5621 41.2686L30.5621 41.2686L30.8121 41.2686ZM21.4742 41.2686L21.7242 41.2686V41.2686H21.4742ZM18.5895 36.1592L18.5895 35.9092L18.5894 35.9092L18.5895 36.1592ZM36.4533 42.7783L36.207 42.7353L36.4533 42.7783ZM30.9405 42.7784L31.1868 42.7353L30.9405 42.7784ZM39.778 44.1924V43.9424H37.5319V44.1924V44.4424H39.778V44.1924ZM36.4533 42.7783L36.6996 42.8214C36.7855 42.3298 36.8317 41.8083 36.8317 41.2686L36.5817 41.2686L36.3317 41.2686C36.3317 41.78 36.2879 42.2726 36.207 42.7353L36.4533 42.7783ZM36.5817 41.2686H36.8317C36.8317 39.8226 36.5013 38.5013 35.9544 37.5327C35.4119 36.5718 34.6234 35.9092 33.6969 35.9092V36.1592V36.4092C34.3635 36.4092 35.0175 36.8903 35.519 37.7785C36.0162 38.6591 36.3317 39.8925 36.3317 41.2686H36.5817ZM33.6969 36.1592L33.6969 35.9092C32.7704 35.9094 31.982 36.572 31.4394 37.5329C30.8925 38.5014 30.5621 39.8227 30.5621 41.2686H30.8121H31.0621C31.0621 39.8926 31.3776 38.6593 31.8748 37.7787C32.3764 36.8905 33.0304 36.4093 33.6969 36.4092L33.6969 36.1592ZM30.8121 41.2686L30.5621 41.2686C30.5621 41.8083 30.6083 42.3298 30.6943 42.8214L30.9405 42.7784L31.1868 42.7353C31.1059 42.2726 31.0621 41.78 31.0621 41.2686L30.8121 41.2686ZM29.862 44.1924V43.9424H22.4245V44.1924V44.4424H29.862V44.1924ZM21.3459 42.7783L21.5921 42.8214C21.6781 42.3298 21.7242 41.8083 21.7242 41.2686L21.4742 41.2686L21.2242 41.2686C21.2242 41.78 21.1805 42.2726 21.0996 42.7353L21.3459 42.7783ZM21.4742 41.2686H21.7242C21.7242 39.8226 21.3939 38.5013 20.847 37.5327C20.3044 36.5718 19.516 35.9092 18.5895 35.9092V36.1592V36.4092C19.2561 36.4092 19.9101 36.8903 20.4116 37.7785C20.9088 38.6591 21.2242 39.8925 21.2242 41.2686H21.4742ZM18.5895 36.1592L18.5894 35.9092C17.663 35.9094 16.8746 36.572 16.332 37.5329C15.7851 38.5014 15.4547 39.8227 15.4547 41.2686H15.7047H15.9547C15.9547 39.8926 16.2702 38.6593 16.7674 37.7787C17.269 36.8905 17.9229 36.4093 18.5895 36.4092L18.5895 36.1592ZM14.7095 41.6312L14.9406 41.5358C13.6632 38.4433 14.072 34.8281 16.1671 32.0712L15.9681 31.9199L15.769 31.7686C13.5642 34.6698 13.1347 38.4734 14.4785 41.7267L14.7095 41.6312ZM16.7265 31.5547V31.8047H39.778V31.5547V31.3047H16.7265V31.5547ZM40.778 32.5547H40.528V43.1924H40.778H41.028V32.5547H40.778ZM22.4245 44.1924V43.9424C21.9062 43.9424 21.4916 43.3966 21.5921 42.8214L21.3459 42.7783L21.0996 42.7353C20.9572 43.55 21.5317 44.4424 22.4245 44.4424V44.1924ZM39.778 31.5547V31.8047C40.1922 31.8047 40.528 32.1405 40.528 32.5547H40.778H41.028C41.028 31.8643 40.4683 31.3047 39.778 31.3047V31.5547ZM37.5319 44.1924V43.9424C37.0136 43.9424 36.599 43.3966 36.6996 42.8214L36.4533 42.7783L36.207 42.7353C36.0646 43.55 36.6391 44.4424 37.5319 44.4424V44.1924ZM15.7047 41.2686L15.4547 41.2686C15.4547 41.4082 15.347 41.5455 15.1945 41.6039C15.1222 41.6317 15.0622 41.6318 15.0241 41.6202C14.994 41.6111 14.9637 41.5917 14.9406 41.5358L14.7095 41.6312L14.4785 41.7267C14.5579 41.9189 14.7032 42.0454 14.8789 42.0987C15.0466 42.1495 15.2226 42.1286 15.3735 42.0708C15.6673 41.9581 15.9547 41.6659 15.9547 41.2686L15.7047 41.2686ZM30.9405 42.7784L30.6943 42.8214C30.7948 43.3966 30.3802 43.9424 29.862 43.9424V44.1924V44.4424C30.7547 44.4424 31.3292 43.55 31.1868 42.7353L30.9405 42.7784ZM15.9681 31.9199L16.1671 32.0712C16.2952 31.9026 16.5021 31.8047 16.7265 31.8047V31.5547V31.3047C16.3588 31.3047 15.9992 31.4657 15.769 31.7686L15.9681 31.9199ZM39.778 44.1924V44.4424C40.4683 44.4424 41.028 43.8827 41.028 43.1924H40.778H40.528C40.528 43.6066 40.1922 43.9424 39.778 43.9424V44.1924Z" fill="#111827"/>
<mask id="mask0_416_10298" style="mask-type:alpha" maskUnits="userSpaceOnUse" x="13" y="31" width="29" height="14">
<path d="M40.778 43.1904C40.778 43.7427 40.3302 44.1904 39.778 44.1904H37.5319C36.8264 44.1904 36.3318 43.4713 36.4533 42.7764C36.5367 42.2992 36.5817 41.7922 36.5817 41.2666C36.5817 38.4446 35.2901 36.1572 33.6969 36.1572C32.1039 36.1575 30.8121 38.4447 30.8121 41.2666C30.8121 41.7922 30.8571 42.2992 30.9405 42.7764C31.062 43.4714 30.5675 44.1904 29.862 44.1904H22.4245C21.719 44.1904 21.2244 43.4713 21.3459 42.7764C21.4293 42.2992 21.4742 41.7922 21.4742 41.2666C21.4742 38.4446 20.1826 36.1572 18.5895 36.1572C16.9965 36.1575 15.7047 38.4447 15.7047 41.2666V41.2666C15.7047 41.8036 14.9145 42.1256 14.7095 41.6293C13.399 38.4564 13.8181 34.747 15.9681 31.918C16.1472 31.6822 16.4305 31.5527 16.7265 31.5527H39.778C40.3302 31.5527 40.778 32.0004 40.778 32.5527V43.1904Z" fill="#195FEB"/>
<path d="M36.5817 41.2666L36.8317 41.2666V41.2666H36.5817ZM33.6969 36.1572L33.6969 35.9072L33.6969 35.9072L33.6969 36.1572ZM30.8121 41.2666L30.5621 41.2666L30.5621 41.2666L30.8121 41.2666ZM21.4742 41.2666L21.7242 41.2666V41.2666H21.4742ZM18.5895 36.1572L18.5895 35.9072L18.5894 35.9072L18.5895 36.1572ZM36.4533 42.7764L36.207 42.7333L36.4533 42.7764ZM30.9405 42.7764L31.1868 42.7334L30.9405 42.7764ZM39.778 44.1904V43.9404H37.5319V44.1904V44.4404H39.778V44.1904ZM36.4533 42.7764L36.6996 42.8194C36.7855 42.3278 36.8317 41.8064 36.8317 41.2666L36.5817 41.2666L36.3317 41.2666C36.3317 41.7781 36.2879 42.2706 36.207 42.7333L36.4533 42.7764ZM36.5817 41.2666H36.8317C36.8317 39.8206 36.5013 38.4993 35.9544 37.5307C35.4119 36.5698 34.6234 35.9072 33.6969 35.9072V36.1572V36.4072C34.3635 36.4072 35.0175 36.8883 35.519 37.7766C36.0162 38.6572 36.3317 39.8905 36.3317 41.2666H36.5817ZM33.6969 36.1572L33.6969 35.9072C32.7704 35.9074 31.982 36.57 31.4394 37.5309C30.8925 38.4995 30.5621 39.8207 30.5621 41.2666H30.8121H31.0621C31.0621 39.8906 31.3776 38.6573 31.8748 37.7768C32.3764 36.8885 33.0304 36.4074 33.6969 36.4072L33.6969 36.1572ZM30.8121 41.2666L30.5621 41.2666C30.5621 41.8064 30.6083 42.3278 30.6943 42.8195L30.9405 42.7764L31.1868 42.7334C31.1059 42.2707 31.0621 41.778 31.0621 41.2666L30.8121 41.2666ZM29.862 44.1904V43.9404H22.4245V44.1904V44.4404H29.862V44.1904ZM21.3459 42.7764L21.5921 42.8194C21.6781 42.3278 21.7242 41.8064 21.7242 41.2666L21.4742 41.2666L21.2242 41.2666C21.2242 41.7781 21.1805 42.2706 21.0996 42.7333L21.3459 42.7764ZM21.4742 41.2666H21.7242C21.7242 39.8206 21.3939 38.4993 20.847 37.5307C20.3044 36.5698 19.516 35.9072 18.5895 35.9072V36.1572V36.4072C19.2561 36.4072 19.9101 36.8883 20.4116 37.7766C20.9088 38.6572 21.2242 39.8905 21.2242 41.2666H21.4742ZM18.5895 36.1572L18.5894 35.9072C17.663 35.9074 16.8746 36.57 16.332 37.5309C15.7851 38.4995 15.4547 39.8207 15.4547 41.2666H15.7047H15.9547C15.9547 39.8906 16.2702 38.6573 16.7674 37.7768C17.269 36.8885 17.9229 36.4074 18.5895 36.4072L18.5895 36.1572ZM14.7095 41.6293L14.9406 41.5338C13.6632 38.4413 14.072 34.8261 16.1671 32.0692L15.9681 31.918L15.769 31.7667C13.5642 34.6679 13.1347 38.4714 14.4785 41.7247L14.7095 41.6293ZM16.7265 31.5527V31.8027H39.778V31.5527V31.3027H16.7265V31.5527ZM40.778 32.5527H40.528V43.1904H40.778H41.028V32.5527H40.778ZM22.4245 44.1904V43.9404C21.9062 43.9404 21.4916 43.3946 21.5921 42.8194L21.3459 42.7764L21.0996 42.7333C20.9572 43.548 21.5317 44.4404 22.4245 44.4404V44.1904ZM39.778 31.5527V31.8027C40.1922 31.8027 40.528 32.1385 40.528 32.5527H40.778H41.028C41.028 31.8624 40.4683 31.3027 39.778 31.3027V31.5527ZM37.5319 44.1904V43.9404C37.0136 43.9404 36.599 43.3946 36.6996 42.8194L36.4533 42.7764L36.207 42.7333C36.0646 43.548 36.6391 44.4404 37.5319 44.4404V44.1904ZM15.7047 41.2666L15.4547 41.2666C15.4547 41.4062 15.347 41.5435 15.1945 41.602C15.1222 41.6297 15.0622 41.6298 15.0241 41.6183C14.994 41.6091 14.9637 41.5897 14.9406 41.5338L14.7095 41.6293L14.4785 41.7247C14.5579 41.917 14.7032 42.0434 14.8789 42.0967C15.0466 42.1476 15.2226 42.1267 15.3735 42.0688C15.6673 41.9561 15.9547 41.6639 15.9547 41.2666L15.7047 41.2666ZM30.9405 42.7764L30.6943 42.8195C30.7948 43.3947 30.3802 43.9404 29.862 43.9404V44.1904V44.4404C30.7547 44.4404 31.3292 43.5481 31.1868 42.7334L30.9405 42.7764ZM15.9681 31.918L16.1671 32.0692C16.2952 31.9007 16.5021 31.8027 16.7265 31.8027V31.5527V31.3027C16.3588 31.3027 15.9992 31.4638 15.769 31.7667L15.9681 31.918ZM39.778 44.1904V44.4404C40.4683 44.4404 41.028 43.8808 41.028 43.1904H40.778H40.528C40.528 43.6046 40.1922 43.9404 39.778 43.9404V44.1904Z" fill="black"/>
</mask>
<g mask="url(#mask0_416_10298)">
<rect x="13.6719" y="42.9062" width="26.4201" height="2.06315" fill="#111827"/>
</g>
<path d="M26.2852 24.2148H39.7947C42.364 24.2148 44.789 25.4021 46.3649 27.4313L49.5675 31.5555H26.2852V24.2148Z" fill="white" stroke="#111827" stroke-width="0.5"/>
<path d="M16.9314 30.0542C18.4348 26.8453 21.4993 24.6498 25.0212 24.2582V24.2582C28.9214 23.8246 32.3327 26.8776 32.3327 30.8019V31.5586H16.2266L16.9314 30.0542Z" fill="white" stroke="#111827" stroke-width="0.5"/>
<path d="M32.3281 31.5566H49.5323L58.0143 35.6913H40.1919L32.3281 31.5566Z" fill="#A5B4FC" stroke="#111827" stroke-width="0.5" stroke-linejoin="round"/>
<path d="M40.2247 35.6934H58.0127V40.6967C58.0127 42.6297 56.4457 44.1967 54.5127 44.1967H37.6836L40.2247 35.6934Z" fill="white" stroke="#111827" stroke-width="0.5" stroke-linejoin="round"/>
<mask id="mask1_416_10298" style="mask-type:alpha" maskUnits="userSpaceOnUse" x="37" y="35" width="22" height="10">
<path d="M40.2286 35.6914H58.0166V40.6948C58.0166 42.6278 56.4496 44.1948 54.5166 44.1948H37.6875L40.2286 35.6914Z" fill="#4A81EF" stroke="black" stroke-width="0.5" stroke-linejoin="round"/>
</mask>
<g mask="url(#mask1_416_10298)">
<path d="M55.9578 42.7709H58.254V44.8762H37.6133V42.7709H44.228C44.8222 42.7709 45.3881 42.5167 45.7828 42.0725L46.004 41.8235C46.3986 41.3792 46.9645 41.125 47.5587 41.125H52.6271C53.2214 41.125 53.7872 41.3792 54.1819 41.8235L54.4031 42.0725C54.7977 42.5167 55.3636 42.7709 55.9578 42.7709Z" fill="#111827"/>
<rect x="42.5586" y="37.5977" width="13.2182" height="2.76848" rx="1" fill="#374151" stroke="#111827" stroke-width="0.5"/>
</g>
<rect x="39.2656" y="34.5625" width="4.12982" height="1.87559" rx="0.937796" fill="white" stroke="#111827" stroke-width="0.5"/>
<rect x="54.1211" y="34.5625" width="4.12982" height="1.87559" rx="0.937796" fill="white" stroke="#111827" stroke-width="0.5"/>
<mask id="mask2_416_10298" style="mask-type:alpha" maskUnits="userSpaceOnUse" x="26" y="24" width="24" height="8">
<path d="M26.2852 24.2148H39.7947C42.364 24.2148 44.789 25.4021 46.3649 27.4313L49.5675 31.5555H26.2852V24.2148Z" fill="#4A81EF"/>
</mask>
<g mask="url(#mask2_416_10298)">
<path d="M42.8608 18.6467L43.4165 21.454C43.7114 22.9439 42.8492 24.4266 41.4084 24.9072L38.737 25.7983L41.494 25.2361C42.981 24.9328 44.4528 25.7907 44.9218 27.234L45.8055 29.9535L45.2498 27.1461C44.9549 25.6562 45.8171 24.1735 47.2579 23.6929L49.9294 22.8019L47.1723 23.3641C45.6853 23.6674 44.2135 22.8095 43.7446 21.3662L42.8608 18.6467Z" fill="#111827"/>
</g>
<path d="M39.8948 26.1191L37.0039 30.3392" stroke="white" stroke-width="0.5" stroke-linecap="round"/>
<path d="M25.2268 26.1191L22.3359 30.3392" stroke="white" stroke-width="0.5" stroke-linecap="round"/>
<path d="M38.1966 26.1191L36.5898 28.4636" stroke="white" stroke-width="0.5" stroke-linecap="round"/>
<path d="M29.3137 27.998L27.707 30.3425" stroke="white" stroke-width="0.5" stroke-linecap="round"/>
<path d="M26.0547 24.2441V43.469" stroke="#111827" stroke-width="0.5" stroke-linecap="round"/>
<path d="M21.9258 33.1523H24.4037" stroke="#111827" stroke-width="0.5" stroke-linecap="round"/>
<path d="M27.707 33.1523H28.5367" stroke="#111827" stroke-width="0.5" stroke-linecap="round"/>
<path d="M42.8608 17.7482L43.4165 20.5556C43.7114 22.0455 42.8492 23.5282 41.4084 24.0088L38.737 24.8999L41.494 24.3376C42.981 24.0344 44.4528 24.8922 44.9218 26.3355L45.8055 29.0551L45.2498 26.2477C44.9549 24.7578 45.8171 23.2751 47.2579 22.7945L49.9294 21.9034L47.1723 22.4657C45.6853 22.7689 44.2135 21.9111 43.7446 20.4678L42.8608 17.7482Z" fill="white"/>
</svg>
