<svg width="20" height="20" viewBox="0 0 20 20" fill="none" xmlns="http://www.w3.org/2000/svg">
<path fill-rule="evenodd" clip-rule="evenodd" d="M10.0007 1.66699H4.16732C3.70708 1.66699 3.33398 2.04009 3.33398 2.50033V17.5003C3.33398 17.9606 3.70708 18.3337 4.16732 18.3337H15.834C16.2942 18.3337 16.6673 17.9606 16.6673 17.5003V8.33366H10.834C10.3737 8.33366 10.0007 7.96056 10.0007 7.50033V1.66699ZM6.66732 11.667C6.66732 11.2068 7.04041 10.8337 7.50065 10.8337H10.0007C10.4609 10.8337 10.834 11.2068 10.834 11.667C10.834 12.1272 10.4609 12.5003 10.0007 12.5003H7.50065C7.04041 12.5003 6.66732 12.1272 6.66732 11.667ZM7.50065 14.167C7.04041 14.167 6.66732 14.5401 6.66732 15.0003C6.66732 15.4606 7.04041 15.8337 7.50065 15.8337H12.9173C13.3776 15.8337 13.7507 15.4606 13.7507 15.0003C13.7507 14.5401 13.3776 14.167 12.9173 14.167H7.50065Z" fill="#111827"/>
<path d="M16.1792 6.66699L11.6673 2.15515V6.66699H16.1792Z" fill="#111827"/>
</svg>
