<svg width="21" height="20" viewBox="0 0 21 20" fill="none" xmlns="http://www.w3.org/2000/svg">
<path d="M17.49 3.40514C17.4814 3.25836 17.4193 3.11983 17.3153 3.01586C17.2113 2.91189 17.0728 2.84971 16.926 2.84114C11.2162 2.50589 6.64275 4.22489 4.69275 7.44989C4.01682 8.55308 3.68374 9.83215 3.73575 11.1249C3.7697 11.9516 3.93789 12.7672 4.23375 13.5399C4.25113 13.5874 4.28027 13.6298 4.31845 13.6631C4.35662 13.6963 4.40259 13.7194 4.45208 13.7301C4.50156 13.7408 4.55295 13.7388 4.60146 13.7243C4.64997 13.7098 4.69401 13.6833 4.7295 13.6471L11.1045 7.17464C11.1602 7.1189 11.2264 7.07468 11.2993 7.04451C11.3721 7.01434 11.4502 6.99881 11.529 6.99881C11.6078 6.99881 11.6859 7.01434 11.7587 7.04451C11.8316 7.07468 11.8978 7.1189 11.9535 7.17464C12.0092 7.23039 12.0535 7.29657 12.0836 7.3694C12.1138 7.44224 12.1293 7.5203 12.1293 7.59914C12.1293 7.67798 12.1138 7.75604 12.0836 7.82888C12.0535 7.90171 12.0092 7.9679 11.9535 8.02364L4.98675 15.0954L3.9225 16.1596C3.81182 16.2674 3.74574 16.4129 3.7374 16.5671C3.72907 16.7213 3.77908 16.8731 3.8775 16.9921C3.9314 17.0546 3.99759 17.1052 4.07193 17.1409C4.14628 17.1766 4.22718 17.1966 4.3096 17.1996C4.39201 17.2026 4.47417 17.1886 4.55093 17.1585C4.62769 17.1283 4.69742 17.0827 4.75575 17.0244L6.015 15.7651C7.0755 16.2781 8.14575 16.5579 9.207 16.5954C9.2905 16.5984 9.37375 16.5999 9.45675 16.5999C10.6653 16.603 11.8509 16.2701 12.8812 15.6384C16.1062 13.6884 17.826 9.11564 17.49 3.40514Z" fill="black"/>
</svg>
