<svg width="20" height="20" viewBox="0 0 20 20" fill="none" xmlns="http://www.w3.org/2000/svg">
<path d="M15.4004 2.2002H9.64865C9.491 2.1997 9.33483 2.23054 9.18921 2.29092C9.04359 2.35131 8.91142 2.44004 8.8004 2.55195L8.0249 3.3252L7.24865 2.55195C7.02363 2.32708 6.71852 2.20076 6.4004 2.20076C6.08227 2.20076 5.77717 2.32708 5.55215 2.55195L3.75215 4.35195C3.52727 4.57697 3.40095 4.88208 3.40095 5.2002C3.40095 5.51832 3.52727 5.82343 3.75215 6.04845L4.5254 6.8247L3.75215 7.6002C3.64023 7.71123 3.5515 7.84339 3.49112 7.98901C3.43073 8.13464 3.39989 8.29081 3.4004 8.44845V16.6002C3.4004 16.9185 3.52682 17.2237 3.75187 17.4487C3.97691 17.6738 4.28214 17.8002 4.6004 17.8002H15.4004C15.7187 17.8002 16.0239 17.6738 16.2489 17.4487C16.474 17.2237 16.6004 16.9185 16.6004 16.6002V3.4002C16.6004 3.08194 16.474 2.77672 16.2489 2.55167C16.0239 2.32663 15.7187 2.2002 15.4004 2.2002ZM4.6004 5.2002L6.4004 3.4002L7.1759 4.1757L5.3759 5.9757L4.6004 5.2002ZM13.9604 14.3202C14.0234 14.3675 14.0765 14.4267 14.1167 14.4945C14.1568 14.5623 14.1832 14.6373 14.1944 14.7153C14.2055 14.7933 14.2012 14.8728 14.1816 14.9491C14.1621 15.0254 14.1277 15.0972 14.0804 15.1602C14.0331 15.2232 13.9739 15.2763 13.9061 15.3165C13.8383 15.3566 13.7633 15.383 13.6853 15.3942C13.6072 15.4053 13.5278 15.401 13.4515 15.3814C13.3752 15.3619 13.3034 15.3275 13.2404 15.2802L10.0004 12.8502L6.7604 15.2802C6.63309 15.3757 6.47307 15.4167 6.31554 15.3942C6.15801 15.3717 6.01587 15.2875 5.9204 15.1602C5.82492 15.0329 5.78392 14.8729 5.80643 14.7153C5.82893 14.5578 5.91309 14.4157 6.0404 14.3202L9.00065 12.1002L6.0404 9.8802C5.91309 9.78472 5.82893 9.64259 5.80643 9.48505C5.78392 9.32752 5.82492 9.16751 5.9204 9.0402C6.01587 8.9129 6.15801 8.82874 6.31554 8.80623C6.47307 8.78373 6.63309 8.82472 6.7604 8.9202L10.0004 11.3502L13.2404 8.9202C13.3677 8.82472 13.5277 8.78373 13.6853 8.80623C13.8428 8.82874 13.9849 8.9129 14.0804 9.0402C14.1759 9.16751 14.2169 9.32752 14.1944 9.48505C14.1719 9.64259 14.0877 9.78472 13.9604 9.8802L11.0001 12.1002L13.9604 14.3202ZM13.6004 5.8002H10.6004C10.4413 5.8002 10.2887 5.73699 10.1761 5.62447C10.0636 5.51194 10.0004 5.35933 10.0004 5.2002C10.0004 5.04107 10.0636 4.88846 10.1761 4.77594C10.2887 4.66342 10.4413 4.6002 10.6004 4.6002H13.6004C13.7595 4.6002 13.9121 4.66342 14.0247 4.77594C14.1372 4.88846 14.2004 5.04107 14.2004 5.2002C14.2004 5.35933 14.1372 5.51194 14.0247 5.62447C13.9121 5.73699 13.7595 5.8002 13.6004 5.8002Z" fill="black"/>
</svg>
