<svg width="20" height="20" viewBox="0 0 20 20" fill="none" xmlns="http://www.w3.org/2000/svg">
<path fill-rule="evenodd" clip-rule="evenodd" d="M4.32605 3.6762C4.48287 3.46058 4.73339 3.33301 5 3.33301H15C15.2712 3.33301 15.5255 3.46501 15.6816 3.68685L18.766 8.0711H19.1667C19.6269 8.0711 20 8.4442 20 8.90444C20 9.36467 19.6269 9.73777 19.1667 9.73777V15.833C19.1667 16.2932 18.7936 16.6663 18.3333 16.6663H15C14.5398 16.6663 14.1667 16.2932 14.1667 15.833V14.9997H5.83333V15.833C5.83333 16.2932 5.46024 16.6663 5 16.6663H1.66667C1.20643 16.6663 0.833333 16.2932 0.833333 15.833V9.58301C0.373096 9.58301 0 9.20991 0 8.74967C0 8.28944 0.373096 7.91634 0.833333 7.91634H1.24231L4.32605 3.6762ZM5 9.99967C4.53976 9.99967 4.16667 10.3728 4.16667 10.833C4.16667 11.2932 4.53976 11.6663 5 11.6663H6.66667C7.1269 11.6663 7.5 11.2932 7.5 10.833C7.5 10.3728 7.1269 9.99967 6.66667 9.99967H5ZM13.3333 9.99967C12.8731 9.99967 12.5 10.3728 12.5 10.833C12.5 11.2932 12.8731 11.6663 13.3333 11.6663H15C15.4602 11.6663 15.8333 11.2932 15.8333 10.833C15.8333 10.3728 15.4602 9.99967 15 9.99967H13.3333Z" fill="#111827"/>
</svg>
