<svg width="20" height="20" viewBox="0 0 20 20" fill="none" xmlns="http://www.w3.org/2000/svg">
<path fill-rule="evenodd" clip-rule="evenodd" d="M2.5 3.33333C2.5 2.8731 2.8731 2.5 3.33333 2.5H16.6667C17.1269 2.5 17.5 2.8731 17.5 3.33333V15C17.5 15.3156 17.3217 15.6042 17.0393 15.7454L10.3727 19.0787C10.1381 19.196 9.86193 19.196 9.62732 19.0787L2.96066 15.7454C2.67834 15.6042 2.5 15.3156 2.5 15V3.33333ZM12.6726 9.13092C12.998 8.80549 12.998 8.27785 12.6726 7.95241C12.3472 7.62697 11.8195 7.62697 11.4941 7.95241L9.16667 10.2798L8.50592 9.61908C8.18049 9.29364 7.65285 9.29364 7.32741 9.61908C7.00197 9.94451 7.00197 10.4722 7.32741 10.7976L8.57741 12.0476C8.73369 12.2039 8.94566 12.2917 9.16667 12.2917C9.38768 12.2917 9.59965 12.2039 9.75593 12.0476L12.6726 9.13092Z" fill="#111827"/>
</svg>
