<svg width="21" height="20" viewBox="0 0 21 20" fill="none" xmlns="http://www.w3.org/2000/svg">
<path d="M19.1402 5.6243L17.6897 4.1753C17.5771 4.06272 17.4245 3.99947 17.2652 3.99947C17.106 3.99947 16.9533 4.06272 16.8407 4.1753C16.7281 4.28789 16.6649 4.44059 16.6649 4.5998C16.6649 4.75902 16.7281 4.91172 16.8407 5.0243L18.2897 6.4748C18.4017 6.58687 18.4648 6.73866 18.4652 6.89705V12.9998C18.4652 13.1589 18.402 13.3115 18.2895 13.4241C18.177 13.5366 18.0244 13.5998 17.8652 13.5998C17.7061 13.5998 17.5535 13.5366 17.441 13.4241C17.3284 13.3115 17.2652 13.1589 17.2652 12.9998V9.9998C17.2652 9.52241 17.0756 9.06458 16.738 8.72701C16.4005 8.38945 15.9426 8.1998 15.4652 8.1998H14.2652V4.5998C14.2652 4.12241 14.0756 3.66458 13.738 3.32701C13.4005 2.98945 12.9426 2.7998 12.4652 2.7998H6.46523C5.98784 2.7998 5.53001 2.98945 5.19244 3.32701C4.85488 3.66458 4.66523 4.12241 4.66523 4.5998V15.9998H3.46523C3.3061 15.9998 3.15349 16.063 3.04097 16.1755C2.92845 16.2881 2.86523 16.4407 2.86523 16.5998C2.86523 16.7589 2.92845 16.9115 3.04097 17.0241C3.15349 17.1366 3.3061 17.1998 3.46523 17.1998H15.4652C15.6244 17.1998 15.777 17.1366 15.8895 17.0241C16.002 16.9115 16.0652 16.7589 16.0652 16.5998C16.0652 16.4407 16.002 16.2881 15.8895 16.1755C15.777 16.063 15.6244 15.9998 15.4652 15.9998H14.2652V9.3998H15.4652C15.6244 9.3998 15.777 9.46302 15.8895 9.57554C16.002 9.68806 16.0652 9.84067 16.0652 9.9998V12.9998C16.0652 13.4772 16.2549 13.935 16.5924 14.2726C16.93 14.6102 17.3878 14.7998 17.8652 14.7998C18.3426 14.7998 18.8005 14.6102 19.138 14.2726C19.4756 13.935 19.6652 13.4772 19.6652 12.9998V6.89705C19.6661 6.66075 19.6202 6.4266 19.5301 6.20815C19.44 5.98969 19.3075 5.79126 19.1402 5.6243ZM11.8652 9.3998H7.06523C6.9061 9.3998 6.75349 9.33659 6.64097 9.22407C6.52845 9.11155 6.46523 8.95893 6.46523 8.7998C6.46523 8.64067 6.52845 8.48806 6.64097 8.37554C6.75349 8.26302 6.9061 8.1998 7.06523 8.1998H11.8652C12.0244 8.1998 12.177 8.26302 12.2895 8.37554C12.402 8.48806 12.4652 8.64067 12.4652 8.7998C12.4652 8.95893 12.402 9.11155 12.2895 9.22407C12.177 9.33659 12.0244 9.3998 11.8652 9.3998Z" fill="black"/>
</svg>
