<svg width="24" height="24" viewBox="0 0 24 24" fill="none" xmlns="http://www.w3.org/2000/svg">
<rect width="24" height="24" fill="#0032C6"/>
<path d="M5.50003 8.00098L6.02905 8.77288L6.92665 9.03747L6.356 9.77913L6.38173 10.7146L5.50003 10.401L4.61834 10.7146L4.64406 9.77913L4.07342 9.03747L4.97101 8.77288L5.50003 8.00098Z" fill="white"/>
<path d="M18.5 8.00098L19.0291 8.77288L19.9266 9.03747L19.356 9.77913L19.3817 10.7146L18.5 10.401L17.6183 10.7146L17.6441 9.77913L17.0734 9.03747L17.971 8.77288L18.5 8.00098Z" fill="white"/>
<path d="M5.50003 13.001L6.02905 13.7729L6.92665 14.0375L6.356 14.7791L6.38173 15.7146L5.50003 15.401L4.61834 15.7146L4.64406 14.7791L4.07342 14.0375L4.97101 13.7729L5.50003 13.001Z" fill="white"/>
<path d="M18.5 13.001L19.0291 13.7729L19.9266 14.0375L19.356 14.7791L19.3817 15.7146L18.5 15.401L17.6183 15.7146L17.6441 14.7791L17.0734 14.0375L17.971 13.7729L18.5 13.001Z" fill="white"/>
<path d="M9.50199 17L10.031 17.7719L10.9286 18.0365L10.358 18.7782L10.3837 19.7136L9.50199 19.4001L8.62029 19.7136L8.64602 18.7782L8.07537 18.0365L8.97297 17.7719L9.50199 17Z" fill="white"/>
<path d="M14.5 17L15.0291 17.7719L15.9266 18.0365L15.356 18.7782L15.3817 19.7136L14.5 19.4001L13.6183 19.7136L13.6441 18.7782L13.0734 18.0365L13.971 17.7719L14.5 17Z" fill="white"/>
<path d="M9.50199 4L10.031 4.7719L10.9286 5.0365L10.358 5.77815L10.3837 6.71358L9.50199 6.40005L8.62029 6.71358L8.64602 5.77815L8.07537 5.0365L8.97297 4.7719L9.50199 4Z" fill="white"/>
<path d="M14.5 4L15.0291 4.7719L15.9266 5.0365L15.356 5.77815L15.3817 6.71358L14.5 6.40005L13.6183 6.71358L13.6441 5.77815L13.0734 5.0365L13.971 4.7719L14.5 4Z" fill="white"/>
<rect x="8.99805" y="9" width="6.00013" height="6.00013" rx="3.00007" fill="white"/>
</svg>
